<svg xmlns="http://www.w3.org/2000/svg" viewBox="0 0 2222 2499.7">
  <path d="M2221.9 734.9c0-42-9-79.2-27.2-111-17.8-31.4-44.6-57.6-80.4-78.4-295.8-170.7-591.9-340.9-887.6-511.8-79.7-46.1-157-44.4-236.2 2.3-117.7 69.5-707.2 407.6-882.9 509.4C35.3 587.3.1 651.5.1 734.8c-.1 343.4 0 686.7-.1 1030 0 41.1 8.6 77.5 26 108.9 17.8 32.3 44.9 59.3 81.6 80.5 175.7 101.8 765.2 439.9 882.9 509.4 79.2 46.8 156.5 48.4 236.2 2.3 295.7-170.9 591.8-341.1 887.7-511.8 36.7-21.2 63.8-48.3 81.6-80.5 17.3-31.4 26-67.8 26-108.9 0 .1 0-686.4-.1-1029.8" fill="#a9b9cb"/>
  <path d="M1224.7 35.9c-79.6-46-156.8-44.3-235.8 2.3-117.5 69.3-706.1 406.5-881.4 508.1C35.3 588.1.1 652.1.1 735.3 0 1077.7.1 1420.2 0 1762.6c0 41 8.6 77.3 25.9 108.6 17.8 32.2 44.9 59.1 81.5 80.3 58.3 33.7 116.6 67.3 175 100.9L1906.3 428.6C1679.1 297.7 1451.8 167 1224.7 35.9" fill="#7f8b99"/>
  <path d="M1340.6 1093.4l345.8 2.4c0-144.1-145.8-496.9-563.9-496.9-266.4 0-624.5 169.4-624.5 656.3s351.1 645.7 624.5 645.7c442.8 0 548.6-306.4 548.6-479.6l-329.9-18.9s8.8 200.3-220.5 200.3c-211.7 0-247-259.3-247-347.5 0-134.1 47.7-349.3 247-349.3 199.4 0 219.9 187.5 219.9 187.5" fill="#fff"/>
</svg>
