<svg xmlns="http://www.w3.org/2000/svg" width="911" height="794">
  <path d="M533.291 793.81c-23.503-3.442-39.39-8.195-58-17.352-32.045-15.77-56.437-38.228-70.163-64.604l-4.163-8-2.684 5.678c-3.747 7.924-4.605 8.466-9.74 6.153-6.542-2.948-14.77-11.804-19.441-20.922-5.014-9.79-8.344-20.208-11.88-37.168-3.096-14.848-4.018-17.716-5.529-17.212-.598.2-2.958 3.954-5.244 8.344-5.003 9.607-6.671 10.271-12.516 4.983-9.058-8.195-14.123-20.691-17.204-42.44-2.782-19.647-2.893-20.159-4.346-20.159-.726 0-2.791 3.38-4.59 7.511-1.798 4.131-3.876 7.511-4.617 7.511-2.059 0-11.058-19.455-13.434-29.042-3.018-12.178-3.694-34.713-1.516-50.574.908-6.61 1.915-12.894 2.238-13.965.374-1.24-2.333.493-7.452 4.769-31.4 26.228-86.436 45.92-128.719 46.055-18.757.06-28.223-3.01-31.187-10.114-2.327-5.576.153-10.95 10.725-23.242 16.52-19.209 27.055-36.899 35.486-59.585 3.13-8.422 12.739-44.315 14.813-55.331l.613-3.255-8.725-.017c-25.731-.052-55.154-6.565-76.789-17C50.62 371.39 18.637 324.55 5.82 258.038-6.858 192.244 1.611 137.27 31.264 92.883 63.92 43.998 121.108 10.95 189.257 1.579c15.37-2.113 45.012-2.07 58.845.087 22.119 3.449 35.857 8.826 53.289 20.857 5.995 4.137 13.268 8.715 16.163 10.173 7.947 4 21.776 8.316 30.737 9.591 12.494 1.778 14.5 2.63 14.5 6.158 0 11.657-15.503 19.598-44.807 22.953-9.89 1.132-18.967 1.036-60.193-.637-13.051-.53-17.397-.305-27.506 1.42-30.364 5.182-57.487 19.335-79.972 41.732-20.417 20.337-33.513 42.278-40.306 67.525-2.219 8.247-2.585 11.69-2.62 24.61-.036 13.862.174 15.641 2.724 23.034 12.079 35.024 47.61 47.3 84.18 29.086 17.141-8.537 32.753-22.713 48.044-43.623 31.07-42.49 48.591-60.16 76-76.645 48.888-29.406 103.634-24.8 148.263 12.475 5.597 4.674 6.513 5.117 8.135 3.931 1.005-.734 4.692-3.435 8.193-6 23.926-17.534 53.675-25.19 80.865-20.813 16.477 2.653 38.668 12.445 55.5 24.488 17.364 12.425 29.39 24.85 60.158 62.15 21.33 25.86 34.664 38.028 50.342 45.94 9.499 4.794 16.48 6.822 23.915 6.946 27.977.468 50.097-39.345 50.081-90.14-.009-29.307-7.879-54.016-21.926-68.843-14.896-15.722-32.956-25.02-56.631-29.155-4.622-.807-17.524-1.932-28.671-2.5-25.598-1.305-36.663-2.668-44.387-5.47-11.344-4.113-21.347-11.36-24.917-18.05-1.851-3.47-1.865-3.755-.237-4.956 1.093-.807 6.967-1.512 16-1.92 27.736-1.254 49.617-5.923 87.773-18.732 28.169-9.456 36.667-10.956 51.619-9.116 23.795 2.928 44.684 13.776 65.764 34.15 37.395 36.145 60.71 89.189 62.3 141.746.99 32.754-3.785 49.865-26.708 95.69-18.184 36.351-34.42 55.03-57.817 66.508-12.941 6.349-26.02 9.9-48.408 13.14-7.012 1.016-12.75 2.225-12.75 2.687 0 2.631 12.82 19.623 20.981 27.81 10.88 10.915 18.702 15.596 31.52 18.865 8.057 2.056 12.5 5.17 12.5 8.762 0 5.607-10.235 13.8-23.123 18.51-12.562 4.59-24.142 6.22-39.878 5.608-31.164-1.212-58.245-13.757-82.5-38.218-6.05-6.102-12.125-12.773-13.5-14.825-1.375-2.051-2.77-3.733-3.102-3.737-.33-.004-.876 3.936-1.212 8.756-.335 4.82-2.42 16.184-4.633 25.254l-4.024 16.492 3.236 3.36c11.64 12.09 28.555 17.416 44.7 14.077 7.996-1.654 12.006-.578 18.017 4.834 8.766 7.893 13.345 19.86 13.345 34.877 0 17.698-5.013 28.315-20.3 42.994-16.696 16.03-20.868 20.64-23.53 25.99-4.535 9.112-2.94 14.467 6.897 23.17 8.19 7.247 9.774 11.15 7.23 17.824-.921 2.414-3.262 6.247-5.204 8.518-4.251 4.974-18.869 14.95-26.619 18.168l-5.605 2.327 2.87 3.967c6.58 9.099 8.741 22.335 5.455 33.418-3.124 10.536-13.628 21.405-22.252 23.025-2.501.47-5.64.02-10.258-1.468-7.795-2.515-13.168-2.709-18.901-.683-6.34 2.24-10.793 6.2-13.73 12.212-2.508 5.134-2.66 6.247-2.512 18.434.27 22.41-3.987 35.354-15.293 46.506-11.09 10.938-25.99 16.374-46.575 16.99-6.875.207-13.85.178-15.5-.063zm18.285-37.207c-9.06-17.848-9.833-30.047-2.85-44.991 3.408-7.293 11.524-16.011 17.971-19.305 10.485-5.357 30.852-8.045 61.094-8.065 28.821-.019 37.398-3.174 40.075-14.744 1.16-5.018-1.049-12.635-5.076-17.503-1.76-2.126-5.93-5.119-9.77-7.01-6.558-3.23-6.978-3.3-19.715-3.257-13.001.044-13.028.049-28.014 5.187-19.094 6.548-25.759 7.7-40.41 6.983-13.972-.683-20.448-2.344-33.59-8.615-23.71-11.314-45.886-34.117-53.5-55.012-2.54-6.971-3.389-11.464-3.101-16.435.193-3.342 1.94-1.717 5.92 5.508 15.355 27.868 40.58 50.59 63.74 57.415 6.967 2.053 18.4 2.258 26.941.483 3.3-.686 14.754-3.688 25.453-6.67 10.7-2.983 23.3-6.17 28-7.084 9.277-1.803 28.018-2.299 40.047-1.06 13.305 1.372 21.612-3.524 21.405-12.614-.122-5.35-2.89-10.685-9.39-18.105-5.799-6.617-7.015-9.108-7.015-14.367 0-8.193 6.718-16.026 30.907-36.034 14.144-11.7 18.84-22.043 17.854-39.327-.598-10.486-3.427-17.588-9.022-22.65l-4.023-3.64-6.608.802c-3.634.44-10.433.819-15.108.841-7.345.035-9.297-.347-14.367-2.807-15.695-7.615-30.982-28.477-40.109-54.735-5.05-14.531-11.51-26.32-25.411-46.378-17.677-25.505-18.862-28.233-15.623-35.995.82-1.964 1.787-7.442 2.15-12.174.363-4.731.977-8.799 1.363-9.038.387-.24 1.782 1.23 3.1 3.263 3.787 5.842 5.538 6.28 16.187 4.044 13.308-2.794 25.184-2.183 33.21 1.708 3.3 1.6 6.404 3.103 6.898 3.34 2.329 1.118-.553-13.58-5.774-29.448-3.093-9.402-5.624-18.317-5.624-19.81 0-6.194 6.372-3.553 14.056 5.826 9.088 11.091 12.204 18.441 19.549 46.101 8.553 32.212 15.07 48.293 24.853 61.323 8.43 11.228 13.213 12.827 20.271 6.777 2.249-1.928 4.495-3.505 4.99-3.505.496 0 5.387 4.393 10.869 9.764 15.29 14.98 25.826 20.264 41.912 21.022 6.971.329 9.451.084 11-1.086 1.951-1.473 1.927-1.537-1-2.613-10.305-3.788-20.045-12.976-30.565-28.834-7.994-12.05-22.037-40.106-29.953-59.844-10.163-25.339-19.404-40.595-33.711-55.651-23.46-24.688-47.5-36.167-75.77-36.178-15.257-.006-22.079 1.83-37.956 10.223-15.382 8.13-22.702 10.88-31.045 11.659-8.23.769-14.627-1.081-38.237-11.057-38.85-16.414-57.226-20.986-84.763-21.089-18.597-.07-21.694.746-55.152 14.512-13.284 5.466-28.36 11.09-33.5 12.497-35.781 9.796-52.425 18.685-71.869 38.386-30.006 30.403-45.895 71.327-52.482 135.179-2.373 23.009-7.055 35.594-23.718 63.757-3.585 6.059-7.504 12.966-8.708 15.349-5.91 11.694 1.702 12.083 24.49 1.253 19.956-9.484 29.371-17.402 42.33-35.598 11.448-16.073 13.489-17.116 18.54-9.47 4.758 7.2 5.576 5.989 13.058-19.343 5.012-16.966 10.009-28.117 12.836-28.64 1.003-.187 2.658.417 3.678 1.341 1.126 1.021 2.63 1.434 3.833 1.051 3.33-1.058 9.86-9.013 13.75-16.747 8.517-16.935 11.127-27.823 12.443-51.905 1.094-20.018 3.937-32.504 10.375-45.567 10.467-21.237 31.182-35.472 54.236-37.27 8.855-.69 12.36.08 12.36 2.716 0 2.412-2.926 4.405-10.101 6.877-8.93 3.077-13.164 5.652-18.258 11.106-9.04 9.678-12.867 21.661-15.209 47.617-6.238 69.133-7.44 75.135-20.604 102.906l-6.288 13.264.087 11.516c.096 12.759 1.78 19.529 4.86 19.529 1.139 0 3.32-2.536 6.028-7.01 5.15-8.506 11.668-15.523 14.419-15.523 2.841 0 3.603 3.97 2.212 11.53-2.47 13.428-.597 36.06 5.4 65.21 4.074 19.805 9.208 36.426 11.251 36.426.494 0 2.533-3.268 4.53-7.261 6.483-12.963 16.715-25.115 19.63-23.311.573.355 1.043 2.134 1.043 3.953 0 1.82 1.58 12.27 3.511 23.225 12.777 72.484 32.195 117.44 63.44 146.876 18.13 17.08 41.973 29.125 67.55 34.126 13.839 2.706 17.92 3.156 17.284 1.904zm12.856-210.308c-.272-.963-.79-3.657-1.152-5.985-.826-5.32-4.236-10.476-7.748-11.712-2.285-.805-3.39-.452-7.237 2.315-2.497 1.795-5.952 3.67-7.678 4.166-10.105 2.902-24.476-9.273-22.356-18.94 2.106-9.604 20.685-15.45 32.31-10.166 9.714 4.416 23.22 23.535 23.22 32.873 0 6.021-7.972 12.367-9.36 7.45zm-59.546-6.958c-9.29-11.28-11.868-33.692-5.453-47.42 7.729-16.54 27.475-26.97 48.582-25.662 20.695 1.283 44.056 13.64 66.324 35.086 7.673 7.39 8.463 8.502 8.458 11.906-.011 7.169-6.719 10.104-12.621 5.522-1.587-1.231-8.06-6.914-14.385-12.628-29.308-26.475-48.514-33.524-67.557-24.793-16.527 7.577-24.002 27.097-20.376 53.208.587 4.225.864 7.886.615 8.135-.248.25-1.862-1.26-3.587-3.354zm-58.692-153.422c-9.194-5.614-14.666-14.931-15.244-25.953-.486-9.282 1.53-14.894 7.739-21.542 5.307-5.682 11.538-9.11 20.333-11.187 6.917-1.633 23.138-1.958 29.06-.581 3.316.771 3.962.612 5.171-1.276.76-1.186 1.926-4.973 2.59-8.416.72-3.73 1.718-6.259 2.47-6.259 1.455 0 1.891 1.554 3.5 12.464.82 5.552 1.9 8.91 3.576 11.11 3.837 5.038 2.832 11.603-2.061 13.466-1.799.685-4.161.096-10.19-2.54-9.046-3.954-14.4-4.403-17.347-1.452-4.097 4.103-1.187 12.018 4.418 12.018 3.905 0 5.724-1.108 7.066-4.306l1.262-3.005 1.24 3.764c2.35 7.133-.714 15.718-7.224 20.236-3.492 2.424-5.066 2.84-10.75 2.84-5.45 0-7.328-.455-10.352-2.504-3.96-2.684-8.66-10.745-8.66-14.852 0-4.619 2.332-10.22 5.7-13.694 3.155-3.252 3.21-3.417.832-2.511-8.339 3.174-13.77 8.483-15.584 15.229-1.947 7.24.8 16.935 7.031 24.814 1.662 2.101 3.021 4.319 3.021 4.928 0 1.73-4.181 1.295-7.597-.791zm204.585 43.492c.516-1.359 2.304-11.849 3.975-23.311 5.435-37.298 3.703-53.694-6.568-62.173-3.033-2.503-8.964-5.417-6.977-3.427.338.339-.745 1.19-2.409 1.89-7.543 3.176-4.968 13.986 3.144 13.199 2.41-.234 3.875-1.2 5.508-3.637l2.225-3.318.68 3.631c2.402 12.825-5.82 23.535-18.066 23.535-10.497 0-18.5-8.108-18.5-18.743 0-8.855 6.713-16.884 15.132-18.099l4.368-.63-4.5-.718c-2.475-.395-8.1-.751-12.5-.791-9.08-.083-14.025 1.742-16.414 6.057-2.669 4.82.405 10.023 14.194 24.022 14.097 14.313 16.47 18.36 22.258 37.95 5.768 19.523 9.13 27.034 12.102 27.034.775 0 1.832-1.112 2.348-2.47zm-527.51-70.385c-2.124-5.054-6.434-18.732-7.53-23.896-1.95-9.183-1.823-21.969.236-24.035 2.618-2.625 6.161-.543 15.785 9.27 20.025 20.421 35.296 27.928 59.19 29.095l11.657.57 5.694-8.84c28.976-44.981 66.314-77.551 104.99-91.581 11.475-4.163 16.188-6.55 17.397-8.813 1.383-2.588.37-3.672-7.425-7.94-3.823-2.092-7.089-4.52-7.257-5.397-.85-4.422 23.763-10.119 57.785-13.374 18.348-1.756 23.013-2.444 22.973-3.387-.015-.352-3.71-2.443-8.21-4.646-12.96-6.345-13.467-9.765-1.952-13.187 7.657-2.275 29.265-2.234 42.19.081 20.773 3.722 43.617 13.35 67.471 28.44 32.026 20.258 37.476 23.037 49.442 25.21 13.23 2.402 24.878-2.669 41.496-18.065 13.452-12.463 20.862-16.5 25.61-13.955 1.513.81 1.98 2.1 1.98 5.473 0 2.43.562 4.776 1.25 5.222.688.446 8.171.81 16.63.81 16.462 0 15.289-.335 17.883 5.106.42.88 3.908 2.608 7.75 3.84 8.132 2.608 17.702 7.319 25.487 12.549 7.934 5.329 8.459 5.606 7.474 3.947-15.985-26.935-47.572-63.263-68.974-79.327-10.358-7.774-28.045-16.879-37.5-19.303-9.287-2.382-23.745-2.18-32 .445-7.519 2.391-17.465 8.039-20.823 11.822-2.075 2.338-2.161 2.78-.81 4.134 1.353 1.354 2.243 1.26 8.324-.884 5.59-1.97 8.778-2.401 17.81-2.408 17.829-.014 19.165 2.034 3.55 5.44-17.137 3.737-28.728 11.244-35.274 22.843-1.632 2.892-3.148 5.258-3.367 5.258-.22 0-3.15-2.22-6.512-4.933-31.946-25.78-64.72-42.755-95.25-49.334-8.211-1.77-13.296-2.176-26.648-2.13-15.141.051-17.488.313-28.5 3.18-15.64 4.072-34.339 13.26-47.979 23.574-18.365 13.888-36.462 33.374-58.224 62.694-19.98 26.918-42.947 44.842-68.35 53.342-22.816 7.635-43.427 5.789-60.582-5.427-10.129-6.622-12.758-7.86-16.693-7.86-4.28 0-5.325 1.252-6.75 8.08-.625 2.992-1.476 5.807-1.893 6.256-1.999 2.151-10.984-11.645-14.428-22.155-3.94-12.02-4.937-20.088-4.29-34.677 1.61-36.24 16.474-71.232 45.731-107.653 9.84-12.25 26.454-28.205 36.01-34.585 10.83-7.23 11.948-8.379 11.948-12.272 0-2.794-.946-4.266-5.5-8.559-3.025-2.851-5.5-5.505-5.5-5.897 0-1.194 2.921-1.758 17.5-3.383 7.7-.858 25.7-1.826 40-2.151 27.782-.631 40.835.168 62.436 3.824 15.35 2.598 37.306 2.265 45.523-.69L339.208 57l-8.4-2.226c-5.822-1.543-16.084-6.102-33.458-14.865-28.103-14.176-36.014-16.805-56.226-18.689-10.53-.981-36.736.128-38.224 1.618-.25.25 1.423 2.065 3.718 4.032 2.295 1.968 4.173 4.388 4.173 5.38 0 3.933-1.512 4.262-32.353 7.04-21.653 1.949-48.954 9.027-66.965 17.36-13.268 6.14-13.25 6.354.516 5.863 13.21-.472 21.574.812 24.197 3.715 1.498 1.657 1.486 1.916-.155 3.403-.977.886-8.293 3.928-16.258 6.761-38.448 13.675-56.186 26.46-70.127 50.54-12.496 21.586-22.863 61.956-22.849 88.977.013 23.916 6.892 53.564 19.207 82.775 3.868 9.174 9.704 20.028 10.77 20.03.285 0 .364-4.73.176-10.513-.546-16.844 3.475-32.324 9.404-36.204 3.511-2.298 5.209.17 8.365 12.165 7.371 28.011 19.18 51.48 33.009 65.598 8.298 8.472 17.518 13.967 15.54 9.262zm688.88-38.58c7.338-3.489 16.498-10.258 22.542-16.657 1.87-1.98 7.606-8.883 12.747-15.341 9.811-12.326 13.261-15.43 15.983-14.385 1.373.528 1.539 1.583 1 6.37a1084.51 1084.51 0 00-1.285 12.246l-.641 6.51 2.29-2.004c6.412-5.604 20.72-32.613 26.48-49.982 5.938-17.906 7.856-31.9 7.219-52.668-.608-19.823-2.769-31.25-9.183-48.578-12.305-33.24-36.897-64.724-66.111-84.639-20.238-13.795-37.418-20.198-54.399-20.273-8.577-.038-10.374.303-18.5 3.51-19.08 7.533-42.544 12.192-75 14.893l-15 1.249 4.5 2.012c3.974 1.776 7.6 2.097 31 2.744 27.168.75 35.781 1.623 49.18 4.984 18.609 4.668 39.564 13.937 55.597 24.593 10.292 6.841 24.173 20.305 30.192 29.284 8.584 12.805 16.031 32.275 16.031 41.91 0 3.826-.248 4.276-2.36 4.276-1.327 0-4.344-1.75-6.903-4.006-5.575-4.915-6.891-5.077-6.066-.75.846 4.436 8.276 26.18 12.919 37.804 3.531 8.843 3.803 10.257 3.855 20.03.041 7.901-.4 11.698-1.778 15.272-2.448 6.355-4.543 6.241-8.177-.446-1.555-2.862-5.14-7.594-7.965-10.516-7.872-8.139-9.558-7.397-13.122 5.777-1.405 5.193-4.76 14.097-7.456 19.787-8.4 17.73-21.38 28.32-38.33 31.27-12.348 2.15-29.55-.925-45.376-8.111l-6.69-3.038 2.975 3.13c4.408 4.64 14.209 11.807 20.467 14.968 12.007 6.063 17.928 7.265 38.996 7.916l19.49.603 1.379 2.887c1.783 3.733.338 9.07-4.434 16.375-1.883 2.884-3.424 5.66-3.424 6.169 0 1.42 9.36-1.37 17.359-5.174z"/>
  <path d="M116.648 356.601c-16.378-11.883-30.544-36.088-40.251-68.774-2.272-7.65-4.916-14.693-5.875-15.653-2.337-2.337-4.979-1.132-7.885 3.596-3.8 6.185-5.114 12.396-5.849 27.662l-.685 14.24-3.847-7.234c-5.104-9.598-13.482-31.608-17.369-45.63-9.892-35.687-9.58-64.217 1.108-101.46 7.722-26.908 16.843-43.88 30.815-57.338 10.47-10.086 21.648-16.38 47.578-26.793 14.932-5.996 22.727-9.728 22.972-10.997.758-3.92-6.468-6.034-20.89-6.114-7.36-.04-13.382-.207-13.382-.368 0-.928 13.092-6.664 23.397-10.251 16.867-5.871 36.049-9.913 57.489-12.115 21.475-2.204 24.932-2.936 26.637-5.638 1.005-1.595.467-2.812-2.682-6.061-2.526-2.607-3.466-4.359-2.618-4.882 2.392-1.479 39.603-1.149 47.598.422 11.823 2.323 16.677 4.217 42.283 16.503 13.084 6.278 28.053 12.861 33.263 14.63l9.472 3.215-6.915 1.435c-8.967 1.862-36.024 1.014-54.852-1.72-23.794-3.453-102.436-1.23-106.957 3.023-.643.605 1.188 3.463 4.461 6.962 8.356 8.933 7.949 10.158-6.938 20.897-5.234 3.776-14.87 12.281-21.415 18.9-54.868 55.497-75.587 131.528-47.41 173.98 2.326 3.503 4.942 6.37 5.814 6.37.886 0 2.54-3.018 3.75-6.84 1.951-6.162 2.52-6.874 5.746-7.19 2.59-.255 6.245 1.266 13.223 5.505 15.93 9.675 21.439 11.363 37.318 11.433 16.673.074 24.562-1.838 41.038-9.946 21.967-10.81 36.564-23.895 59.162-53.032 35.97-46.378 60.983-67.036 94.878-78.356 43.457-14.514 94.456-.783 148.45 39.967 7.605 5.74 14.214 10.436 14.688 10.436.473 0 3.05-3.122 5.727-6.937 7.39-10.536 16.308-16.059 32.72-20.263 9.003-2.306 12.543-4.105 11.038-5.61-1.607-1.607-26.487-.664-31.672 1.2-6.46 2.324-8.474 2.36-8.474.149 0-2.411 6.358-6.996 15.882-11.453 6.527-3.054 10.082-3.899 18.407-4.372 16.662-.948 31.584 4.14 52.13 17.772 11.26 7.471 35.183 31.149 49.2 48.693 11.266 14.103 22.046 29.335 21.293 30.089-.271.27-3.972-1.609-8.225-4.178-4.252-2.568-12.014-6.302-17.247-8.296-5.807-2.213-10.552-4.875-12.173-6.828-2.585-3.116-3.083-3.218-18.42-3.797l-15.764-.595-.68-4.203c-.96-5.933-1.964-7.097-6.123-7.097-4.653 0-9.876 3.252-21.779 13.558-19.393 16.792-28.977 20.961-42.534 18.503-10.018-1.817-16.566-4.99-38.946-18.873-31.771-19.71-53.372-29.453-75.186-33.914-17.616-3.602-49.78-1.817-52.71 2.925-1.656 2.678 1.144 5.793 9.15 10.177l8.49 4.65-5.24.833c-2.88.457-15.072 1.963-27.092 3.346-12.019 1.383-26.985 3.816-33.258 5.408-16.995 4.31-18.338 6.974-6.833 13.557 6.716 3.842 7.93 5.821 5.04 8.22-.877.727-8.504 4.152-16.95 7.61-25.748 10.542-42.44 21.628-63.965 42.478-14.857 14.393-24.701 26.238-36.814 44.296l-8.549 12.746-5.353.005c-8.515.007-21.872-2.026-28.909-4.402-10.227-3.453-19.08-9.447-33.353-22.581-13.62-12.533-17.357-14.403-19.771-9.892-2.965 5.54-.123 26.133 5.735 41.55 1.276 3.36 1.917 6.108 1.424 6.108-.493 0-2.984-1.514-5.536-3.365z" fill="#fff"/>
  <path d="M534.28 754.105c-28.48-6.058-53.339-19.671-72.28-39.58-29.855-31.385-48.747-79.73-60.265-154.223-1.158-7.493-2.408-13.926-2.777-14.295-2.392-2.392-11.186 7.466-19.195 21.52l-5.379 9.436-1.896-4.538c-2.635-6.306-8.346-29.474-11.468-46.523-2.098-11.45-2.631-18.959-2.7-37.964-.065-18.15-.441-23.81-1.61-24.2-2.772-.924-7.282 3.198-14.023 12.818-3.66 5.224-7.094 9.498-7.63 9.498-2.111 0-3.585-8.069-3.585-19.629 0-12.08.027-12.195 5.91-24.668 11.64-24.675 13.551-33.264 18.467-82.98 1.65-16.682 3.838-34.598 4.864-39.813 3.917-19.915 12.227-30.737 28.694-37.367 10.284-4.14 12.933-6.143 11.854-8.957-.839-2.185-5.323-2.685-15.116-1.687-22.771 2.32-43.04 17.096-53.086 38.697-5.485 11.794-8.376 25.16-9.978 46.129-1.56 20.4-4.19 32.054-10.004 44.327-7.65 16.15-15.098 24.383-18.75 20.731-4.744-4.743-8.295.424-15.798 22.99-8.232 24.757-9.002 26.764-10.276 26.764-.642 0-2.52-1.606-4.17-3.569-5.342-6.348-7.425-5.211-19.316 10.535-11.618 15.386-18.89 22.202-31.65 29.667-10.099 5.908-26.014 12.388-30.912 12.586-6.299.254-5.27-3.61 6.392-24.005 17.354-30.349 19.892-37.633 23.903-68.631 3.234-24.985 4.236-30.61 8.454-47.428 10.204-40.698 28.805-71.435 56.676-93.652 11.79-9.4 26.773-16.604 49.506-23.806 10.562-3.346 30.623-10.588 44.58-16.093 29.88-11.786 36.269-13.463 51.378-13.486 26.052-.04 43.1 4.053 82.594 19.834 39.204 15.665 42.49 15.765 69.698 2.12 19.316-9.688 24.951-11.27 40.04-11.246 16.147.026 26.818 2.267 39.303 8.254 12.988 6.228 19.099 10.554 31.104 22.02 18.14 17.327 26.004 29.782 41.702 66.055 10.212 23.595 21.958 46.25 30.07 57.995 7.158 10.364 19.39 22.112 25.218 24.22 9.099 3.29 2.293 5.494-10.98 3.555-12.935-1.89-21.356-6.428-35.348-19.05-6.542-5.9-12.277-10.748-12.745-10.771-.468-.024-3.297 1.508-6.286 3.404-6.526 4.139-8.8 3.772-14.7-2.368-10.585-11.015-17.602-26.84-28.169-63.527-4.334-15.048-9.568-30.838-11.63-35.09-4.463-9.2-17.2-23.053-20.602-22.405-3.633.693-3.228 4.687 2.353 23.226 2.92 9.7 5.689 20.17 6.154 23.268l.844 5.633-5.51-2.438c-10.753-4.756-17.42-5.027-40.246-1.634-5.408.804-5.803.66-9.6-3.485-2.179-2.378-4.286-4.323-4.683-4.323-.397 0-1.047 3.078-1.445 6.84-.398 3.761-1.553 10.136-2.568 14.166-1.74 6.917-1.715 7.616.455 12.49 1.264 2.84 7.388 12.656 13.609 21.815 15.005 22.095 19.988 31.134 27.194 49.324 3.318 8.378 8.438 19.34 11.376 24.36 7.213 12.32 19.846 25.459 28.606 29.748 6.737 3.3 7.161 3.35 22.008 2.69l15.138-.673 4.173 4.62c5.697 6.306 8.276 15.56 7.586 27.217-.938 15.822-3.24 19.104-31.684 45.145-17.959 16.442-20.516 23.361-12.649 34.225 12.683 17.514 14.445 22.179 10.424 27.596-4.184 5.637-6.484 6.101-30.292 6.12-24.976.02-27.122.357-61.813 9.707-34.482 9.294-44.671 8.691-66.17-3.915-11.03-6.467-32.888-29.263-41.402-43.178-8.955-14.637-10.615-15.582-9.703-5.527 1.728 19.054 19.595 43.308 43.88 59.567 13.65 9.138 26.318 13.931 41.332 15.639 14.994 1.705 24.687.368 44.81-6.178 23.325-7.589 38.799-7.818 50.621-.751 10.676 6.381 15.427 19.416 10.063 27.604-4.36 6.654-10.4 7.987-41.097 9.071-33.362 1.178-46.473 3.122-57.074 8.46-14.266 7.183-23.044 22.013-23.056 38.952-.006 8.42.51 10.485 5.723 22.898.735 1.752.24 2.067-3.12 1.985-2.196-.053-7.74-.894-12.32-1.868zm38.004-210.04c1.015-1.448 1.845-4.136 1.845-5.972 0-8.753-15.95-30.223-24.564-33.066-9.548-3.151-25.735.6-29.879 6.924-4.491 6.854-.104 16.915 9.517 21.823 6.082 3.103 11.95 2.528 18.31-1.794 2.512-1.707 5.467-3.104 6.565-3.104 3.126 0 7.848 6.54 8.774 12.15 1.084 6.572 2.515 8.388 5.393 6.848 1.207-.646 3.024-2.36 4.039-3.809zM508.239 526.2c-.101-13.525.307-18.195 2.023-23.114 3.365-9.645 9.17-16.306 17.998-20.652 7.008-3.45 8.464-3.737 16.954-3.34 15.483.725 27.177 7.396 53.773 30.674 6.802 5.954 13.63 11.142 15.175 11.53 4.72 1.184 8.736-2.38 8.736-7.754 0-4.158-.846-5.382-9.344-13.5-35.72-34.127-73.578-43.344-100.88-24.56-6.696 4.607-12.96 13.063-15.261 20.6-4.062 13.306-.938 33.51 6.587 42.606 2.03 2.454 3.843 4.46 4.029 4.46.186 0 .28-7.627.21-16.95zm-54.28-139.17c-.016-.818-1.868-4.372-4.115-7.898-2.246-3.526-4.717-9.24-5.491-12.698-1.298-5.8-1.187-6.726 1.438-11.965 2.749-5.483 8.61-11.139 10.051-9.698.386.386-.14 2.331-1.17 4.322-2.535 4.903-2.354 11.214.48 16.77 3.552 6.962 7.988 9.57 16.27 9.564 13.752-.008 21.5-9.47 18.938-23.124-.73-3.893-3.064-6.053-3.064-2.837 0 2.448-3.845 5.744-6.7 5.744-4.021 0-7.133-5.144-5.404-8.937 1.921-4.217 5.929-4.692 13.989-1.657 3.87 1.457 9.165 2.698 11.766 2.756 4.016.09 4.965-.38 6.284-3.11 1.366-2.828 1.204-4.045-1.346-10.11-1.594-3.792-3.29-9.571-3.769-12.842-1.165-7.956-2.73-11.971-4.124-10.578-.61.611-2.063 4.23-3.227 8.042l-2.117 6.932-17.247.18c-16.342.172-17.642.363-24.742 3.642-8.693 4.014-17.37 12.827-19.234 19.533-2.577 9.28-.496 20.362 5.432 28.915 4.913 7.09 17.195 13.592 17.102 9.053z" fill="#fff"/>
  <path d="M646.255 429.136c-1.123-1.24-4.892-10.851-8.374-21.355-5.83-17.585-10.879-28.765-13.807-30.575-2.904-1.794-.684-2.452 4.614-1.367 5.128 1.05 6.452.858 11.597-1.693 7.838-3.884 11.594-10.82 10.737-19.829-.326-3.435-.334-6.245-.018-6.245.317 0 1.75 2.543 3.186 5.65 2.333 5.053 2.587 7.413 2.404 22.303-.206 16.775-4.876 51.948-7.206 54.277-.661.662-1.894.203-3.133-1.166zM608.004 359.67c-3.06-3.435-6.341-8.035-7.292-10.223-1.53-3.519-1.516-4.304.113-6.79 2.443-3.73 9.038-5.537 18.505-5.074l7.732.379-4.498 2.796c-6.444 4.006-9.641 10.842-8.815 18.846.358 3.471.464 6.31.235 6.31-.23 0-2.92-2.81-5.98-6.244z" fill="#fff"/>
  <path d="M636.621 352.878c-2.836-3.134-1.566-7.833 2.716-10.047 3.009-1.556 3.674-1.492 7.12.69 2.09 1.323 3.8 2.832 3.8 3.353 0 1.993-7.01 8.335-9.214 8.335-1.272 0-3.262-1.049-4.422-2.33zM799.483 318.082c2.32-4.222 4.22-9.27 4.22-11.216 0-6.75-1.24-7.213-21.412-7.994-19.467-.753-28.543-2.474-37.786-7.164-6.064-3.076-21.013-13.699-20.293-14.42.241-.24 4.768 1.095 10.06 2.968 41.763 14.778 68.482.134 83.262-45.634 1.875-5.807 4.115-10.829 4.978-11.16 2.099-.805 9.092 5.99 14.086 13.69 7.482 11.532 11.73 6.666 11.682-13.382-.028-11.612-.203-12.363-7.327-31.522-6.723-18.079-9.805-28.548-8.404-28.548.31 0 2.614 1.63 5.12 3.621 2.524 2.006 5.648 3.465 7.003 3.271 2.167-.31 2.408-1.068 2.11-6.632-.39-7.29-4.704-20.075-10.581-31.363-12.295-23.611-39.039-44.276-74.183-57.32-18.237-6.768-31.543-8.916-63.66-10.274-15.661-.663-29.673-1.537-31.137-1.943-3.917-1.085-2.037-2.846 3.037-2.846 7.317 0 34.517-3.418 47.8-6.006 6.87-1.339 18.913-4.67 26.764-7.403 12.679-4.414 15.419-4.958 24.518-4.867 38.628.384 87.157 38.4 111.861 87.63 11.943 23.798 16.477 43.152 16.462 70.27-.01 18.806-1.024 26.695-5.397 41.974-3.747 13.092-19.124 44.58-24.882 50.949l-4.301 4.758.581-4.758c1.827-14.957 1.96-18.256.763-18.995-2.857-1.766-6.67 1.443-18.346 15.44-6.744 8.083-15.157 17.176-18.696 20.206-6.355 5.44-22.333 14.085-28.794 15.577l-3.328.769z" fill="#fff"/>
</svg>
