<svg xmlns="http://www.w3.org/2000/svg" xmlns:xlink="http://www.w3.org/1999/xlink" width="110.421" height="109.846" version="1.0">
  <defs>
    <linearGradient id="a">
      <stop offset="0" stop-color="#ffe052"/>
      <stop offset="1" stop-color="#ffc331"/>
    </linearGradient>
    <linearGradient gradientUnits="userSpaceOnUse" y2="168.101" x2="147.777" y1="111.921" x1="89.137" id="d" xlink:href="#a"/>
    <linearGradient id="b">
      <stop offset="0" stop-color="#387eb8"/>
      <stop offset="1" stop-color="#366994"/>
    </linearGradient>
    <linearGradient gradientUnits="userSpaceOnUse" y2="131.853" x2="110.149" y1="77.07" x1="55.549" id="c" xlink:href="#b"/>
  </defs>
  <g color="#000">
    <path style="marker:none" d="M99.75 67.469c-28.032 0-26.281 12.156-26.281 12.156l.031 12.594h26.75V96H62.875s-17.938-2.034-17.938 26.25 15.657 27.281 15.657 27.281h9.343v-13.125s-.503-15.656 15.407-15.656h26.531s14.906.241 14.906-14.406V82.125s2.263-14.656-27.031-14.656zM85 75.938a4.808 4.808 0 014.813 4.812A4.808 4.808 0 0185 85.563a4.808 4.808 0 01-4.813-4.813A4.808 4.808 0 0185 75.937z" fill="url(#c)" overflow="visible" transform="translate(-44.938 -67.469)"/>
    <path d="M100.546 177.315c28.032 0 26.281-12.156 26.281-12.156l-.03-12.594h-26.75v-3.781h37.374s17.938 2.034 17.938-26.25c0-28.285-15.657-27.282-15.657-27.282h-9.343v13.125s.503 15.657-15.407 15.657h-26.53s-14.907-.241-14.907 14.406v24.219s-2.263 14.656 27.031 14.656zm14.75-8.469a4.808 4.808 0 01-4.812-4.812 4.808 4.808 0 014.812-4.813 4.808 4.808 0 014.813 4.813 4.808 4.808 0 01-4.813 4.812z" style="marker:none" fill="url(#d)" overflow="visible" transform="translate(-44.938 -67.469)"/>
  </g>
  <path d="M69.386163 101.20394c-.940128-.22876-1.784072-.71707-2.447728-1.416264-.86824-.914736-1.171986-1.628764-1.258199-2.957697-.06491-1.000602-.0161-1.305494.329354-2.057014.547298-1.190633 1.090429-1.795926 2.108873-2.350233 1.776968-.967147 3.879874-.713198 5.398179.651889 1.144868 1.029335 1.559479 2.062524 1.477457 3.681749-.07295 1.440143-.413004 2.268137-1.292879 3.148011-1.101564 1.101569-2.901266 1.643579-4.315057 1.299559zM38.163245 17.603971c-1.621957-.732675-2.633082-2.181708-2.760452-3.955977-.194585-2.71058 1.670846-4.8772899 4.349903-5.0524373 1.479582-.09673 2.555313.3085636 3.604957 1.3582076 1.076096 1.0760957 1.462957 2.1339817 1.350951 3.6942297-.12737 1.774269-1.138495 3.223302-2.760453 3.955977-1.012686.457454-2.772219.457454-3.784906 0z" fill="#fff"/>
</svg>
