<svg xmlns="http://www.w3.org/2000/svg" width="70" height="70">
  <linearGradient id="a" gradientUnits="userSpaceOnUse" x1="8.063" y1="16.141" x2="29.26" y2="69.757">
    <stop offset=".22" stop-color="#c40b55"/>
    <stop offset=".683" stop-color="#e343e6"/>
    <stop offset=".925" stop-color="#f59252"/>
  </linearGradient>
  <path fill="url(#a)" d="M20.2 15.2L34 36.7 11.6 70 0 23.1z"/>
  <linearGradient id="b" gradientUnits="userSpaceOnUse" x1="875.719" y1="73.292" x2="927.556" y2="18.152" gradientTransform="matrix(-1 0 0 1 928 0)">
    <stop offset=".113" stop-color="#ffbd00"/>
    <stop offset=".586" stop-color="#e343e6"/>
    <stop offset=".817" stop-color="#ec841b"/>
    <stop offset=".935" stop-color="#ffbd00"/>
  </linearGradient>
  <path fill="url(#b)" d="M18.9 15.7L21 0l30.2 33.6-8.8 8.7L49.2 70H11.6z"/>
  <linearGradient id="c" gradientUnits="userSpaceOnUse" x1="25.5" y1="-1.93" x2="69.96" y2="51.168">
    <stop offset=".129" stop-color="#ffbd00"/>
    <stop offset=".64" stop-color="#e343e6"/>
    <stop offset=".909" stop-color="#c40b55"/>
  </linearGradient>
  <path fill="url(#c)" d="M35.3 47.1H70L58.4 0H21z"/>
  <g>
    <path d="M13.4 13.4h43.2v43.2H13.4z"/>
    <path d="M17.4 19h8.2c2.3 0 4 .6 5.2 1.8 1 1 1.5 2.4 1.5 4.1v.1c0 1.5-.4 2.6-1.1 3.5-.7.9-1.6 1.6-2.8 2l4.4 6.4h-4.6l-3.7-5.5h-3.3v5.5h-3.9V19zm8 8.7c1 0 1.7-.2 2.2-.7.5-.5.8-1.1.8-1.8v-.1c0-.9-.3-1.5-.8-1.9-.5-.4-1.3-.6-2.3-.6h-3.9v5.1h4zM17.4 48.5h16.2v2.7H17.4z" fill="#fff"/>
    <g>
      <path d="M43.7 24.4h-4v-3.6h4v-4h3.7v4h4v3.6h-4v4h-3.7v-4z" fill="#fff"/>
    </g>
    <g>
      <path d="M37.1 34.6h-4V31h4v-4h3.7v4h4v3.6h-4v4h-3.7v-4z" fill="#fff"/>
    </g>
  </g>
</svg>
