<svg xmlns="http://www.w3.org/2000/svg" height="144" width="144" viewBox="20 20 104 104">
  <path d="m71.05 23.68c-26.06 0-47.27 21.22-47.27 47.27s21.22 47.27 47.27 47.27 47.27-21.22 47.27-47.27-21.22-47.27-47.27-47.27zm-.07 4.2a3.1 3.11 0 0 1 3.02 3.11 3.11 3.11 0 0 1 -6.22 0 3.11 3.11 0 0 1 3.2-3.11zm7.12 5.12a38.27 38.27 0 0 1 26.2 18.66l-3.67 8.28c-.63 1.43.02 3.11 1.44 3.75l7.06 3.13a38.27 38.27 0 0 1 .08 6.64h-3.93c-.39 0-.55.26-.55.64v1.8c0 4.24-2.39 5.17-4.49 5.4-2 .23-4.21-.84-4.49-2.06-1.18-6.63-3.14-8.04-6.24-10.49 3.85-2.44 7.85-6.05 7.85-10.87 0-5.21-3.57-8.49-6-10.1-3.42-2.25-7.2-2.7-8.22-2.7h-40.6a38.27 38.27 0 0 1 21.41-12.08l4.79 5.02c1.08 1.13 2.87 1.18 4 .09zm-44.2 23.02a3.11 3.11 0 0 1 3.02 3.11 3.11 3.11 0 0 1 -6.22 0 3.11 3.11 0 0 1 3.2-3.11zm74.15.14a3.11 3.11 0 0 1 3.02 3.11 3.11 3.11 0 0 1 -6.22 0 3.11 3.11 0 0 1 3.2-3.11zm-68.29.5h5.42v24.44h-10.94a38.27 38.27 0 0 1 -1.24-14.61l6.7-2.98c1.43-.64 2.08-2.31 1.44-3.74zm22.62.26h12.91c.67 0 4.71.77 4.71 3.8 0 2.51-3.1 3.41-5.65 3.41h-11.98zm0 17.56h9.89c.9 0 4.83.26 6.08 5.28.39 1.54 1.26 6.56 1.85 8.17.59 1.8 2.98 5.4 5.53 5.4h16.14a38.27 38.27 0 0 1 -3.54 4.1l-6.57-1.41c-1.53-.33-3.04.65-3.37 2.18l-1.56 7.28a38.27 38.27 0 0 1 -31.91-.15l-1.56-7.28c-.33-1.53-1.83-2.51-3.36-2.18l-6.43 1.38a38.27 38.27 0 0 1 -3.32-3.92h31.27c.35 0 .59-.06.59-.39v-11.06c0-.32-.24-.39-.59-.39h-9.15zm-14.43 25.33a3.11 3.11 0 0 1 3.02 3.11 3.11 3.11 0 0 1 -6.22 0 3.11 3.11 0 0 1 3.2-3.11zm46.05.14a3.11 3.11 0 0 1 3.02 3.11 3.11 3.11 0 0 1 -6.22 0 3.11 3.11 0 0 1 3.2-3.11z"/>
  <path d="m115.68 70.95a44.63 44.63 0 0 1 -44.63 44.63 44.63 44.63 0 0 1 -44.63-44.63 44.63 44.63 0 0 1 44.63-44.63 44.63 44.63 0 0 1 44.63 44.63zm-.84-4.31 6.96 4.31-6.96 4.31 5.98 5.59-7.66 2.87 4.78 6.65-8.09 1.32 3.4 7.46-8.19-.29 1.88 7.98-7.98-1.88.29 8.19-7.46-3.4-1.32 8.09-6.65-4.78-2.87 7.66-5.59-5.98-4.31 6.96-4.31-6.96-5.59 5.98-2.87-7.66-6.65 4.78-1.32-8.09-7.46 3.4.29-8.19-7.98 1.88 1.88-7.98-8.19.29 3.4-7.46-8.09-1.32 4.78-6.65-7.66-2.87 5.98-5.59-6.96-4.31 6.96-4.31-5.98-5.59 7.66-2.87-4.78-6.65 8.09-1.32-3.4-7.46 8.19.29-1.88-7.98 7.98 1.88-.29-8.19 7.46 3.4 1.32-8.09 6.65 4.78 2.87-7.66 5.59 5.98 4.31-6.96 4.31 6.96 5.59-5.98 2.87 7.66 6.65-4.78 1.32 8.09 7.46-3.4-.29 8.19 7.98-1.88-1.88 7.98 8.19-.29-3.4 7.46 8.09 1.32-4.78 6.65 7.66 2.87z" fill-rule="evenodd" stroke="#000" stroke-linecap="round" stroke-linejoin="round" stroke-width="3"/>
  <path d="m 66.050891,122.71948 c -5.979807,-0.711 -9.7562,-1.59318 -14.354725,-3.35332 -1.600405,-0.61257 -3.024577,-1.33353 -3.164827,-1.60213 -0.140249,-0.26861 -0.699961,-2.61634 -1.243805,-5.21719 -0.543843,-2.60085 -1.163988,-5.07236 -1.3781,-5.49224 -1.172442,-2.29924 -2.712319,-2.51607 -8.689051,-1.22353 l -4.423729,0.95668 -1.556394,-1.66228 c -0.856017,-0.91426 -1.860704,-2.08965 -2.232639,-2.61198 l -0.676245,-0.9497 h 21.991859 21.991861 l -0.08126,-8.161016 -0.08125,-8.161017 -6.635593,-0.08222 -6.635593,-0.08222 V 80.354454 75.63159 h 7.420228 c 8.18705,0 9.233741,0.171813 11.269529,1.849881 1.755448,1.44699 2.828303,4.059306 4.064146,9.895882 0.604001,2.852542 1.351498,5.911787 1.661105,6.798322 0.746771,2.138328 2.978032,5.218368 4.589701,6.335635 l 1.298153,0.89994 11.848568,0.0865 c 6.51671,0.0476 11.84857,0.18588 11.84857,0.30733 0,0.12144 -0.76873,1.11216 -1.70829,2.2016 -2.9705,3.44438 -2.22182,3.1781 -6.39264,2.27361 -6.633452,-1.43854 -6.4677,-1.42252 -7.946992,-0.76816 -1.725632,0.76333 -2.001234,1.39365 -3.337557,7.63315 -0.591586,2.76221 -1.242628,5.12787 -1.44676,5.25702 -0.790783,0.5003 -5.693153,2.17066 -8.425157,2.87066 -5.208931,1.33464 -13.070986,1.98179 -17.573113,1.44649 z" transform="translate(20 20) scale(.72222)" fill="#fff"/>
  <path d="M36.633786 118.41467c-2.786881-1.53724-2.817654-5.79583-.05222-7.2259 3.540454-1.83084 7.396342 1.86706 5.662619 5.43061-.999805 2.05503-3.619682 2.89337-5.610404 1.79529zM100.68409 118.73941c-2.227043-1.15053-3.07062-3.79278-1.850013-5.79464.831183-1.36318 1.899083-1.97471 3.490403-1.99876 1.59099-.0241 2.70056.60007 3.5534 1.99876 2.03867 3.34353-1.75199 7.57272-5.19379 5.79464zM107.88938 84.355824c-1.37324-.511203-2.94018-1.908662-2.94018-2.622161 0-1.060322-1.30994-5.432528-2.16627-7.230374-.9575-2.010261-3.092632-4.546034-5.071222-6.022794l-1.201622-.896851 2.312774-1.716511c4.70106-3.489053 7.68013-7.675358 8.20782-11.533947 1.14214-8.351516-4.80455-15.932673-14.92265-19.024194l-2.260529-.690691-29.108514-.09961-29.108515-.09961 1.193261-1.231274c1.785889-1.842781 5.80415-5.187076 8.153222-6.785716l2.078606-1.414577h12.02419c11.479704 0 12.069421.02758 13.023088.609029 1.281777.781499 3.1567.781499 4.438477 0 .954897-.582201 1.543598-.609029 13.364198-.609029h12.365298l1.890038 1.273958c5.94821 4.009315 12.2809 10.600144 15.55814 16.192338l.83088 1.417789-2.48162 5.583381c-1.36489 3.07086-2.60025 5.987675-2.74524 6.481811-.34599 1.179119.13638 2.924392 1.04389 3.776949.39197.368246 2.96381 1.67457 5.7152 2.902945l5.00251 2.233403.247 1.188806c.13585.653842.20834 2.633491.1611 4.399218l-.0859 3.210419-2.72987.08903c-1.50144.04897-2.89282.224259-3.09197.389535-.21708.180162-.40995 1.492243-.48161 3.276311-.1497 3.727129-.96971 5.407985-3.15422 6.465485-1.75494.849551-4.49435 1.069675-6.05977.486927z" transform="translate(20 20) scale(.72222)" fill="#fff"/>
  <path d="m 119.98063,58.094527 c -2.07169,-0.900619 -2.96113,-4.317111 -1.58077,-6.07196 1.31556,-1.672456 3.76201,-2.212595 5.46503,-1.206595 1.26979,0.750083 2.24566,2.660492 2.0319,3.97774 -0.4749,2.926484 -3.23496,4.466408 -5.91616,3.300815 z" transform="translate(20 20) scale(.72222)" fill="#fff"/>
  <path d="m 107.87289,84.350958 c -2.01872,-0.752055 -2.65279,-1.657254 -3.43323,-4.901321 -1.15929,-4.818841 -3.01114,-7.93098 -6.309678,-10.603754 l -1.581541,-1.281508 2.354107,-1.773873 c 3.164502,-2.384524 5.547192,-5.08763 6.905522,-7.834158 1.00991,-2.042021 1.13501,-2.564174 1.23074,-5.137234 0.0871,-2.341458 -0.0194,-3.255996 -0.58376,-5.011104 C 104.66324,42.235464 99.009245,37.332933 92.079196,35.342822 89.902343,34.717693 89.131623,34.697708 60.716317,34.529575 L 31.585133,34.357206 34.209472,31.881914 C 40.904498,25.567126 48.908235,21.135786 57.604126,18.929258 l 3.177007,-0.806146 3.550133,3.71384 c 1.952573,2.042612 3.850008,3.86168 4.216518,4.042373 1.126352,0.555302 2.970345,0.39079 4.011746,-0.357907 0.525142,-0.377543 2.531684,-2.175106 4.458984,-3.994584 l 3.504182,-3.308144 1.306471,0.213971 c 2.422522,0.396756 9.216451,2.79946 12.317101,4.355999 8.471982,4.252969 16.272972,11.24356 21.047262,18.860783 l 1.36035,2.170397 -2.57655,5.914348 c -1.41711,3.252893 -2.60245,6.188924 -2.63409,6.524518 -0.26961,2.859663 0.46647,3.554997 6.71549,6.343709 l 5.02478,2.242382 0.24755,1.191454 c 0.13615,0.655297 0.20889,2.636139 0.16165,4.401866 l -0.0859,3.210419 -2.72987,0.08903 c -1.50144,0.04897 -2.89282,0.224259 -3.09197,0.389535 -0.21708,0.180162 -0.40995,1.492243 -0.48161,3.276311 -0.10173,2.532964 -0.23872,3.1792 -0.92049,4.342558 -0.47788,0.81544 -1.29837,1.646305 -2.03407,2.059789 -1.59701,0.897572 -4.62416,1.160546 -6.27592,0.545199 z" transform="translate(20 20) scale(.72222)" fill="#fff"/>
  <path d="M69.101739 19.02917c-1.434047-.500025-2.149536-1.287914-2.632042-2.898377-.3102-1.035355-.266608-1.339712.37799-2.639123.601619-1.21277.981233-1.571833 2.177781-2.059886 1.434412-.585073 1.463743-.585039 2.883624.0034 4.920466 2.039237 2.21907 9.34659-2.807353 7.59397zM58.8814 56.106163v-4.881356h9.141097c8.61814 0 9.242112.0377 10.90678.658922 4.135412 1.543265 5.315534 5.204303 2.395519 7.431507-1.881523 1.435108-3.797255 1.672283-13.507494 1.672283H58.8814zM19.515309 83.220979C18.371048 78.97152 17.699602 72.11023 17.936653 67.089214l.122431-2.59322 4.880548-2.135593c5.711511-2.4992 6.653632-3.281835 6.653632-5.527277 0-.874761-.338183-2.157919-.915254-3.472723-.50339-1.146928-.915254-2.165279-.915254-2.263001 0-.09772 1.578813-.177677 3.508474-.177677h3.508475v16.779661 16.779661h-7.462817-7.462817zM16.932247 57.635397c-1.116278-.734635-1.983445-2.269321-1.98191-3.507525.0015-1.214531.973864-2.76246 2.207935-3.514882 3.519879-2.146096 7.602571 2.144687 5.430394 5.707175-1.143242 1.87498-3.849664 2.504278-5.656419 1.315232z" transform="translate(20 20) scale(.72222)" fill="#fff"/>
</svg>
