<svg xmlns="http://www.w3.org/2000/svg" viewBox="0 0 97.1 97">
  <path d="M88.4 5.6a42.32 42.32 0 01-5.2 9.1A48.46 48.46 0 1015.5 84l1.8 1.6A48.41 48.41 0 0096.8 52c1.4-12.2-2.3-27.8-8.4-46.4zM22.5 84.4a4.12 4.12 0 11-.6-5.8 4.21 4.21 0 01.6 5.8zm65.6-14.5C76.2 85.8 50.6 80.4 34.3 81.2c0 0-2.9.2-5.8.6 0 0 1.1-.5 2.5-1 11.5-4 16.9-4.8 23.9-8.4C68 65.7 81.1 51 83.7 35.8c-5 14.6-20.2 27.2-34 32.3-9.5 3.5-26.6 6.9-26.6 6.9l-.7-.4c-11.6-5.7-12-30.9 9.2-39 9.3-3.6 18.1-1.6 28.2-4 10.7-2.5 23.1-10.5 28.1-21 5.6 16.9 12.4 43.1.2 59.3z" data-name="Layer 2" fill="#6db33f"/>
  <path d="M30.927 80.999c.266-.143 4.46-1.497 9.32-3.01 9.545-2.97 15.383-5.502 20.179-8.752C68.9 63.493 76.379 54.86 80.502 46.063c1.543-3.291 3.58-9.682 3.206-10.056-.097-.097-.702 1.06-1.345 2.573-4.717 11.1-17.531 22.992-30.705 28.494-7.383 3.084-27.656 8.158-29.253 7.322-4.734-2.478-7.648-8.247-7.635-15.111.014-6.766 2.38-12.318 7.37-17.29 5.688-5.666 11.69-7.866 23.547-8.63 11.778-.757 16.19-1.67 22.78-4.71 7.547-3.482 14.818-9.693 18.214-15.56l1.152-1.99 1.066 3.223c5.662 17.115 7.227 34.127 4.124 44.835C89.31 71.97 81.163 78.545 66.347 80.69c-3.442.498-36.308.785-35.42.309zM17.09 85.108c-1.025-.595-1.887-2.78-1.63-4.126.115-.604.664-1.524 1.219-2.045 2.088-1.962 5.898-.75 6.432 2.045.267 1.394-.63 3.57-1.709 4.148-1.052.563-3.326.552-4.313-.022z" fill="#fff"/>
  <path d="M19.132 85.911a4.127 4.127 0 01-3.01-1.505l-.066-.081v-4.199l3.49.003 3.49.004.061.157c.114.293.191.584.245.928.038.24.041.924.005 1.162-.126.841-.46 1.577-.988 2.175a4.27 4.27 0 01-1.25.94c-.427.207-.884.34-1.341.39-.18.02-.524.034-.636.026z" fill="#fff"/>
  <path d="M16.824 85.081a4.796 4.796 0 01-.67-.633 4.117 4.117 0 01-.735-3.994c.22-.637.62-1.248 1.096-1.678l.127-.115h5.322l.114.106c.141.131.363.383.49.557.423.581.688 1.244.784 1.965.031.235.032.822 0 1.046a4.228 4.228 0 01-.857 2.061c-.162.206-.48.513-.71.686l-.087.066h-4.786z" fill="#fff"/>
  <path d="M17.641 79.905l.002-1.872.11-.045a4.124 4.124 0 013.424.147c.395.202.725.444 1.021.75a4.211 4.211 0 011.185 2.785l.006.107h-5.75z" fill="#fff"/>
  <path d="M15.199 81.496a4.112 4.112 0 012.293-3.39c.442-.216.87-.34 1.38-.4.193-.024.671-.024.864 0a4.2 4.2 0 011.676.558l.104.062.002 1.595.002 1.596H15.2v-.02zM28.667 81.743c.022-.021.903-.388 1.346-.56.657-.255.87-.331 2.325-.83 2.536-.867 4.817-1.596 8.876-2.838 3.507-1.073 4.852-1.498 6.126-1.935 4.23-1.452 7.795-3.115 11.123-5.188 3.576-2.228 6.951-4.9 10.175-8.053l.453-.443h2.088V80.025l-.122.026c-3.581.756-6.85 1.14-11.18 1.317-3.254.132-8.136.097-13.41-.096-1.01-.038-1.765-.044-4.393-.038-1.745.003-4.219-.004-5.497-.017-2.51-.026-2.389-.03-3.982.114-.935.084-2.204.22-3.118.333-.699.087-.832.1-.81.08z" fill="#fff"/>
  <path d="M70.275 78.148v-2.075h10.961v.027c0 .025 0 .026-.012.034a28.45 28.45 0 01-3.1 1.631c-2.067.931-4.334 1.674-6.856 2.246-.307.07-.968.21-.987.21-.005 0-.006-.2-.006-2.073z" fill="#fff"/>
  <path d="M76.985 75.943v-2.309H84.638l-.032.029c-.182.16-.519.44-.785.653-1.644 1.314-3.49 2.44-5.535 3.376-.406.186-1.016.448-1.292.556l-.009.003z" fill="#fff"/>
  <path d="M79.226 70.522v-5.535h5.933c3.264 0 5.934.001 5.934.004a29.875 29.875 0 01-3.272 5.27 24.217 24.217 0 01-3.974 4.033c-.74.594-1.52 1.148-2.34 1.663l-.159.1h-2.122z" fill="#fff"/>
  <path d="M79.226 66.772v-5.535H92.64l-.005.02a33.317 33.317 0 01-1.356 3.346 29.77 29.77 0 01-3.66 5.91c-.455.571-.901 1.082-1.42 1.627l-.158.166h-6.816z" fill="#fff"/>
  <path d="M79.226 56.772v-5.535h15.47l-.005.068-.032.346c-.305 3.126-.867 5.97-1.71 8.664-.165.524-.428 1.29-.617 1.793l-.073.195-6.517.002-6.516.002zM72.254 43.27v-7.828h21.84l.007.03c.014.068.133.965.206 1.544.299 2.406.482 4.646.563 6.878.028.792.037 1.326.037 2.326 0 1.33-.021 2.128-.087 3.298-.03.528-.099 1.5-.11 1.555l-.006.025H77.665l.026-.043a53.883 53.883 0 001.701-2.976c.195-.37.672-1.315.855-1.7 1.53-3.198 2.61-6.347 3.254-9.495.071-.348.166-.86.16-.866-.008-.008-.038.022-.055.054a6.887 6.887 0 00-.11.293c-1.515 4.186-3.933 8.382-7.142 12.39a55.68 55.68 0 01-1.755 2.086l-.227.257H72.253z" fill="#fff"/>
  <path d="M86.934 51.926v-2.768h7.91l-.002.02-.008.139a50.266 50.266 0 01-.563 5.36l-.002.016h-7.335zM83.622 37.643v-1.395l.02-.107c.024-.135.024-.132 0-.108l-.02.019V31.21h4.892c3.071 0 4.892.001 4.892.004l.063.353a94.517 94.517 0 011.067 7.447l.003.023H83.623z" fill="#fff"/>
  <path d="M86.078 31.277V28.51h6.791l.048.231a110.41 110.41 0 01.973 5.3c0 .003-1.717.004-3.906.004h-3.906z" fill="#fff"/>
  <path d="M82.953 29.858v-3.914h9.346l.008.037a118.904 118.904 0 011.169 5.62c.123.674.298 1.696.368 2.15l.004.02H82.953z" fill="#fff"/>
  <path d="M81.035 25.409v-3.914h10.15l.024.09.09.34a135.542 135.542 0 011.725 7.335l.014.062H81.035z" fill="#fff"/>
  <path d="M82.04 20.296v-1.405l.009-.008a36.8 36.8 0 002.288-2.62l.076-.096h2.627l2.627.002.095.316a170.002 170.002 0 011.477 5.215c0 .001-2.07.002-4.6.002H82.04z" fill="#fff"/>
  <path d="M81.548 19.399l.226-.23c.313-.32.75-.785 1.067-1.137 1.714-1.902 3.12-3.842 4.255-5.872.053-.095.173-.315.267-.49l.025-.045h.847l.06.183a196.545 196.545 0 012.327 7.635c.003.009-.217.01-4.562.01h-4.564z" fill="#fff"/>
  <path d="M83.907 16.798l.087-.11c1.493-1.817 2.789-3.81 3.752-5.768l.141-.289c.007-.015.012-.021.014-.016a210.583 210.583 0 011.954 6.179c.002.005-.583.007-2.973.007-1.636 0-2.975-.001-2.975-.003zM64.978 54.876v-2.768h8.47l-.008.01-.42.445a63.424 63.424 0 01-5.282 4.917l-.195.163h-2.565z" fill="#fff"/>
  <path d="M65.474 53.826v-3.914h4.963c2.73 0 4.964.002 4.964.003 0 .01-.601.704-.908 1.05-.339.38-.873.965-1.145 1.251l-.201.213a63.068 63.068 0 01-5.596 5.206l-.129.105h-1.948zM67.68 63.25l.134-.128c.418-.396.752-.72 1.222-1.19a63.334 63.334 0 003.77-4.118l.079-.097h4.764v5.534H67.68z" fill="#fff"/>
  <path d="M60.65 68.951a59.537 59.537 0 005.738-4.516c.91-.809 1.683-1.54 2.657-2.514a61.671 61.671 0 003.972-4.358 61.15 61.15 0 002.943-3.87l.125-.18h11.279V69.168H60.335zM35.833 62.5v-9.633h36.899l-.453.454a64.316 64.316 0 01-4.165 3.844c-.345.292-.47.394-1.273 1.038-4.697 3.77-9.852 6.875-15.053 9.065-.666.28-1.516.615-2.205.867-3.105 1.139-7.51 2.433-12.726 3.74-.533.134-.981.247-.996.252-.026.007-.028-.458-.028-9.626z" fill="#fff"/>
  <path d="M22.779 74.81c-.172-.1-.453-.255-.625-.345-.8-.422-1.499-.897-2.176-1.477l-.16-.138V59.445H63.66v1.164l-.394.275a63.45 63.45 0 01-7.942 4.748c-3.226 1.622-5.93 2.679-10.11 3.952-4.849 1.477-11.457 3.136-18.67 4.69-1.284.275-3.413.72-3.443.717-.006 0-.152-.082-.323-.181z" fill="#fff"/>
  <path d="M22.818 74.833c-.15-.086-.432-.241-.625-.345-1.14-.61-1.966-1.215-2.85-2.088a13.95 13.95 0 01-2.231-2.861 18.037 18.037 0 01-1.916-4.629l-.06-.23h25.4v6.243l-.605.161c-3.922 1.044-8.48 2.13-13.238 3.158-1.339.289-3.56.752-3.592.75-.005-.001-.133-.072-.283-.159z" fill="#fff"/>
  <path d="M20.794 73.63a12.866 12.866 0 01-2.53-2.423c-1.91-2.387-3.176-5.588-3.61-9.121-.126-1.03-.156-1.55-.156-2.79 0-1.069.006-1.272.07-2.038.156-1.852.541-3.757 1.119-5.536l.024-.074h26.497V70.46l-.105.031c-.147.044-.575.162-1.184.328-3.27.89-7.09 1.831-11.213 2.76l-.932.21H21.013l-.219-.158z" fill="#fff"/>
  <path d="M14.624 61.824a15.767 15.767 0 01-.08-.832 21.29 21.29 0 01-.05-1.991c.009-.868.018-1.074.074-1.743a24.664 24.664 0 016.134-14.284 26.049 26.049 0 013.363-3.158l.115-.09H42.943v22.141h-28.31z" fill="#fff"/>
  <path d="M16.139 50.457c.05-.161.414-1.02.628-1.48 1.536-3.308 3.751-6.195 6.59-8.586 1.787-1.506 3.928-2.863 6.14-3.891 3.354-1.56 6.65-2.457 10.774-2.937 1.744-.202 3.322-.317 6.664-.485 1.86-.093 3.174-.167 3.996-.224l.387-.027v17.665h-35.19z" fill="#fff"/>
  <path d="M31.161 41.36c0-3.073.003-5.587.006-5.587s.166-.062.363-.139c3.061-1.19 6.265-1.879 10.428-2.243 1.202-.105 2.447-.185 4.508-.29 2.762-.14 3.4-.175 4.492-.25 3.68-.252 6.513-.665 9.307-1.358 4.872-1.208 9.93-3.485 14.447-6.503.152-.102.28-.186.285-.186.005 0 .008 4.982.008 11.07v11.071H31.161z" fill="#fff"/>
  <path d="M51.927 35.15v-2.372l.152-.011c1.254-.09 3.213-.321 4.543-.534 4.409-.706 8.462-2.019 12.641-4.093 5.285-2.624 10.008-6.14 13.572-10.102a37.844 37.844 0 001.974-2.386l.203-.27h4.413l.023.075a147.501 147.501 0 01.68 2.27c1.953 6.663 3.314 12.821 4.064 18.39.065.489.173 1.342.173 1.377 0 .028-.144.03-5.5.03h-5.501l.01-.044.023-.097c.055-.226.27-1.344.26-1.354-.021-.021-.077.102-.212.472-.085.231-.207.554-.272.718l-.117.296-15.564.004-15.565.004z" fill="#fff"/>
</svg>
