<svg xmlns="http://www.w3.org/2000/svg" width="1101.632" height="629.199"><path d="M 1032.1509,0.00922327 C 989.65079,7.258249 945.61525,-4.8000263 903.48293,6.5111765 875.40951,23.306131 872.61687,67.624127 896.31496,89.32563 883.62663,105.90361 873.05771,123.94376 860.86964,140.88813 848.52,122.89281 835.09496,105.55608 824.33839,86.565864 838.21462,69.925594 837.13802,46.413388 834.188,26.239692 831.34664,12.675223 819.29325,0.99839427 805.03957,1.0287546 781.9689,-1.5498243 759.06423,5.254164 736.00246,2.4779733 705.69023,2.1578128 674.66144,-1.2863743 644.90285,6.3197702 615.00447,21.644379 611.46337,68.473121 637.16847,89.366646 c 11.90583,10.755844 29.11162,13.123274 44.40625,10.599609 9.90465,3.390165 12.01547,15.174385 18.69002,22.168735 2.52584,3.90527 6.7816,9.45379 8.30998,12.41135 -6.70666,-3.77888 -14.6133,-0.10983 -21.77148,-1.36719 -78.73112,0 -157.46224,0 -236.19336,0 -3.25102,-43.759791 -6.50432,-87.519409 -9.75391,-131.2793017 -142.49935,0 -284.9987,0 -427.498044,0 C 10.273744,74.858133 -1.380249,147.71312 0.13526977,220.87641 9.6277677,241.27646 42.200039,240.71259 53.16066,221.99165 c 3.184843,-4.18184 9.750573,-2.10493 14.078572,-4.72331 19.187646,-7.25045 28.755326,-28.43273 30.056194,-47.78841 2.001615,-20.02793 -1.236209,-42.33463 11.449214,-59.32813 9.63585,-8.42265 23.71267,-7.09382 35.57813,-7.5957 7.26712,0.0173 14.56449,0.15278 21.79492,-0.70703 -0.15636,98.85061 1.57162,197.71841 -0.81836,296.55469 -10.69043,1.42105 -21.50052,-0.91474 -32.22435,0.43418 -12.2638,0.19792 -24.54032,1.04575 -36.635023,3.1498 0,32.17774 0,64.35547 0,96.5332 87.251633,-2.73678 174.587713,-2.70503 261.839843,-0.006 0,-30.48111 0,-60.96223 0,-91.44335 -21.24169,-10.64146 -45.77259,-8.08824 -68.72266,-8.27735 0.24298,-98.8342 -1.0768,-197.67625 0.56641,-296.50391 18.84929,-0.23538 39.49018,-2.26666 56.22852,7.96876 5.18664,6.41767 6.56515,14.8721 7.4746,22.83789 -9.05416,0.10052 -18.10226,0.47635 -27.15429,0.67773 0.70182,29.4582 -0.60349,58.9445 0.89062,88.38672 13.85097,10.48369 31.94574,12.34964 48.77539,11.80664 0.0309,98.8617 0.83635,197.72754 -0.32617,296.58594 -15.09352,-0.64562 -33.06015,-1.46598 -44.5957,10.04687 -9.29716,18.18758 -2.18043,39.04323 -4.55664,58.30078 0,10.09896 0,20.19792 0,30.29688 131.07422,0 262.14844,0 393.22265,0 6.28327,-44.18433 12.56781,-88.36848 18.85157,-132.55274 23.43456,0.39014 46.8982,2.17725 70.1582,5.16407 -0.92082,-37.55518 0.69831,-75.15092 -1.25586,-112.6836 12.43677,-18.28968 24.80586,-36.62443 37.33399,-54.85156 17.44057,26.0533 36.44438,51.00256 52.43164,77.91211 -13.83571,16.74551 -13.8337,40.56257 -9.46485,60.76953 4.71627,15.47177 20.6379,27.00843 36.96875,24.91016 24.08837,-0.0115 48.19913,-3.40423 72.07892,-1.23994 27.24311,0.57489 55.08801,2.19878 81.74921,-4.49834 29.7842,-17.98547 30.3826,-67.63687 1.0508,-86.3418 -12.1259,-8.69549 -27.8704,-8.11777 -41.8691,-7.91797 -10.7456,-8.53263 -14.5183,-22.58393 -23.675,-32.50669 -31.88763,-45.91456 -63.026,-92.34252 -94.76061,-138.3605 30.24942,-41.24277 53.45546,-88.24108 91.61921,-122.98828 17.7884,-5.769653 39.9903,-3.94938 54.043,-18.611328 18.9978,-22.327383 16.6862,-61.192755 -8.1661,-78.3339849 -7.4372,-4.6747899 -16.2278,-7.24079643 -25.0254,-7.05859383 z M 721.19777,152.70649 c 21.82618,31.97889 43.54113,64.03249 65.3125,96.04883 -34.78437,48.33815 -62.86168,102.11031 -104.95313,144.5918 -16.43241,8.03029 -35.95269,7.06301 -52.86523,1.05078 -0.75022,-46.85796 4.03463,-94.08547 -3.26367,-140.64258 14.16039,26.40549 3.82069,59.3912 20.45898,85.00195 3.79093,6.10348 9.43916,11.03445 16.67969,12.27344 19.49011,5.12751 41.62066,0.19382 56.88476,-12.95313 13.44419,-14.49141 13.36917,-36.13312 9.4975,-54.34948 -5.20908,-47.50805 -10.212,-95.03887 -15.61468,-142.52552 2.62109,3.83464 5.24219,7.66928 7.86328,11.50391 z m -166.54492,80.61133 c 16.40574,0.0318 32.76428,1.06594 48.69336,5.19141 -11.15539,-0.82139 -23.05117,4.08065 -29.14649,13.71093 -11.5908,2.22019 -23.89736,6.78017 -30.17969,17.5 -10.39084,13.70208 -10.97525,32.00034 -9.09375,48.27735 -4.8645,7.53695 -15.07801,4.68649 -22.69335,5.44038 -4.27152,0.008 -8.09304,-0.25459 -12.29102,-1.3232 -1.35725,-12.26844 1.12849,-24.62315 -0.25324,-36.90817 -0.081,-16.92327 -0.0708,-33.84797 0.20636,-50.76956 18.27526,0.0981 36.49262,-1.14535 54.75782,-1.11914 z m -45.55469,188.23437 c 8.19432,0.70894 16.88434,-1.31634 24.3125,3.13086 4.44745,28.15294 -0.52941,57.08484 6.07517,85.05458 1.30393,7.27371 3.59517,14.37408 6.89553,20.99035 20.58592,-1.6492 35.78415,-18.91163 43.90235,-36.61524 8.43704,-1.22051 16.99837,-4.043 23.36718,-9.92383 0,5.94401 0,11.88802 0,17.83203 8.53194,-0.72348 17.14037,-1.88763 25.54883,-2.65039 -7.39755,17.79318 -25.86874,29.93261 -45.08237,29.54172 -31.13256,3.78632 -62.6543,1.43524 -93.95669,1.00516 -1.50101,-9.13251 1.03391,-18.25507 -0.2976,-27.51359 -0.17798,-26.88421 -0.39591,-53.77493 0.28002,-80.65438 2.98175,-0.075 5.97518,-0.34484 8.95508,-0.19727 z" fill="#fff" stroke-width="1.2"/><path d="M 401.84951,43.900122 H 52.579508 l -10.21,133.769998 h 10.87 c 7.82,-100.189998 16.41,-117.729998 110.210002,-117.729998 10.87,0 28.53,0 33.39,0 11.55,1.81 11.55,9.16 11.55,23.08 V 412.28012 c 0,21.86 -1.83,28.53 -52.78,28.53 h -17.17 v 14.61 c 29.02,-0.56 59.26,-1.15 88.93,-1.15 29.58,0 59.91,0.59 88.91,1.15 v -14.61 h -16.88 c -50.19,0 -52,-6.67 -52,-28.53 V 83.030122 c 0,-13.36 0,-20.61 10.89,-23.08 h 33.19 c 92.55,0 101.61,17.44 109.42,117.729998 h 10.89" stroke-width="1.2"/><path d="m 705.35951,434.33012 h -10.87 c -13.26,89.69 -21.08,138.44 -127.47,138.44 h -83.95 c -24.16,0 -25.3,-3.05 -25.3,-23.86 v -169.07 h 57.06 c 57.06,0 62.5,20.91 62.5,71.96 h 9.72 v -157.35 h -9.72 c 0,50.19 -5.45,70.71 -62.5,70.71 h -57.07 v -149.9 c 0,-20.42 1.15,-23.47 25.3,-23.47 h 82.7 c 93.6,0 104.49,37.2 112.97,117.17 h 10.9 l -14.51,-133.78 h -306.26 v 16.61 c 42.84,0 49.7,0 49.7,27.19 v 326.42 c 0,27.19 -6.77,27.19 -49.7,27.19 v 14.61 h 314.76"/><path d="m 868.41951,226.52012 89.49,-129.379998 c 8.96,-12.7 27.19,-38.84 76.82009,-39.5 v -14.6 c -13.85,1.15 -36.83009,1.15 -51.34009,1.15 -19.93,0 -44.75,0 -59.82,-1.15 v 14.61 c 19.37,1.81 24.13,13.92 24.13,23.67 0,7.23 -2.96,12.11 -7.25,18.12 l -79.85,115.819998 -89.49,-130.989998 c -4.2,-6.59 -4.79,-8.5 -4.79,-10.31 0,-5.45 6.59,-15.75 26.62,-16.32 v -14.6 c -19.37,1.15 -48.95,1.15 -68.88,1.15 -15.66,0 -45.89,0 -60.5,-1.15 v 14.61 c 33.22,0 44.09,1.25 57.45,20.03 l 116.68,171.369998 -105.22,153.71 c -25.96,37.59 -65.26,38.25 -76.82,38.25 v 14.61 c 13.82,-1.15 36.83,-1.15 51.34,-1.15 16.32,0 44.75,0 59.82,1.15 v -14.61 c -18.71,-1.81 -24.13,-13.92 -24.13,-23.67 0,-7.82 2.96,-12.11 6.01,-16.41 l 96.75,-141.2 105.22,154.66 c 4.76,6.69 4.76,8.5 4.76,10.31 0,4.76 -5.42,15.17 -26.6,16.41 v 14.61 c 19.37,-1.15 48.95,-1.15 68.88,-1.15 15.66009,0 45.89009,0 60.57009,1.15 v -14.61 c -38.74,0 -44.84,-2.96 -56.8601,-20.03"/></svg>