<svg xmlns="http://www.w3.org/2000/svg" viewBox="0 0 630 630">
  <path d="M0 315v315h630V0H0v315zm507.7-25.1c16 4 28.2 11.1 39.4 22.7 5.8 6.2 14.4 17.5 15.1 20.2.2.8-27.2 19.2-43.8 29.5-.6.4-3-2.2-5.7-6.2-8.1-11.8-16.6-16.9-29.6-17.8-19.1-1.3-31.4 8.7-31.3 25.4 0 4.9.7 7.8 2.7 11.8 4.2 8.7 12 13.9 36.5 24.5 45.1 19.4 64.4 32.2 76.4 50.4 13.4 20.3 16.4 52.7 7.3 76.8-10 26.2-34.8 44-69.7 49.9-10.8 1.9-36.4 1.6-48-.5-25.3-4.5-49.3-17-64.1-33.4-5.8-6.4-17.1-23.1-16.4-24.3.3-.4 2.9-2 5.8-3.7 2.8-1.6 13.4-7.7 23.4-13.5l18.1-10.5 3.8 5.6c5.3 8.1 16.9 19.2 23.9 22.9 20.1 10.6 47.7 9.1 61.3-3.1 5.8-5.3 8.2-10.8 8.2-18.9 0-7.3-.9-10.5-4.7-16-4.9-7-14.9-12.9-43.3-25.2-32.5-14-46.5-22.7-59.3-36.5-7.4-8-14.4-20.8-17.3-31.5-2.4-8.9-3-31.2-1.1-40.2 6.7-31.4 30.4-53.3 64.6-59.8 11.1-2.1 36.9-1.3 47.8 1.4zm-147.9 26.3l.2 25.8h-82v233h-58V342h-82v-25.3c0-14 .3-25.7.7-26 .3-.4 50.2-.6 110.7-.5l110.1.3.3 25.7z" fill="#007ACC"/>
  <path d="M219.966 457.284V341.16H139.881v-50.72H358.78v50.72h-82.755v232.246h-56.059zM440.898 571.03c-21.505-7.068-40.682-20.14-52.74-35.953-5.67-7.435-9.786-14.367-9.146-15.402.64-1.036 10.629-7.343 22.197-14.015l21.032-12.132 14.318 14.287c18.825 18.783 37.688 24.237 60.85 17.594 14.894-4.272 24.21-15.12 24.21-28.192 0-16.234-7.293-22.387-51.615-43.548-58.108-27.743-73.851-46.488-73.851-87.93 0-49.077 31.76-77.02 86.758-76.332 33.47.418 51.51 8.785 70.419 32.66l8.275 10.449-21.628 14.2-21.629 14.2-7.04-8.274c-9.375-11.016-16.257-14.15-31.066-14.15-15.692 0-22.21 3.533-26.806 14.535-4.834 11.57-.91 26.165 8.88 33.023 3.986 2.793 23.856 13.09 44.155 22.881 43.505 20.986 59.573 34.724 67.093 57.365 5.893 17.742 4.778 50.565-2.203 64.878-7.14 14.64-22.181 28.771-38.887 36.535-12.824 5.96-19.064 7.006-45.559 7.63-24.328.573-33.878-.321-46.017-4.31z" fill="#fff"/>
</svg>
