<svg xmlns="http://www.w3.org/2000/svg" width="400" height="400" viewBox="0 0 105.833 105.833">
  <path fill="#e40046" stroke-width=".238" d="M0 0h105.833v105.833H0z"/>
  <path d="M55.626 19.402a2.23 2.23 0 00-2.015 1.373L40.283 52.83a2.23 2.23 0 104.118 1.712l11.252-27.067 23.6 57.544a2.23 2.23 0 104.126-1.693l-25.648-62.54a2.23 2.23 0 00-2.105-1.384z" fill="#fff" fill-rule="evenodd" stroke-width="4.46" stroke-linecap="round" stroke-linejoin="round" stroke-miterlimit="1.5"/>
  <path d="M36.734 64.87a2.23 2.23 0 00-2.024 1.404l-7.084 17.042a2.23 2.23 0 104.118 1.712l7.084-17.042a2.23 2.23 0 00-2.094-3.115z" fill="#fff" stroke-width="4.46" stroke-miterlimit="1.5"/>
  <path d="M21.465 63.467a2.23 2.23 0 100 4.46H47.22a2.23 2.23 0 100-4.46zM26.18 52.88a2.23 2.23 0 100 4.459h25.751a2.23 2.23 0 100-4.46z" fill="#fff" fill-rule="evenodd" stroke-width="4.46" stroke-linecap="round" stroke-linejoin="round" stroke-miterlimit="1.5"/>
</svg>
