<?xml version="1.0" encoding="utf-8"?>
<!-- Generator: Adobe Illustrator 22.1.0, SVG Export Plug-In . SVG Version: 6.00 Build 0)  -->
<svg version="1.1" id="Layer_1" xmlns="http://www.w3.org/2000/svg" xmlns:xlink="http://www.w3.org/1999/xlink" x="0px" y="0px"
	 viewBox="0 0 2222 2499.7" style="enable-background:new 0 0 2222 2499.7;" xml:space="preserve">
<style type="text/css">
	.st0{fill:#A9B9CB;}
	.st1{fill:#7F8B99;}
	.st2{fill:#FFFFFF;}
</style>
<path class="st0" d="M2221.9,734.9c0-42-9-79.2-27.2-111c-17.8-31.4-44.6-57.6-80.4-78.4c-295.8-170.7-591.9-340.9-887.6-511.8
	c-79.7-46.1-157-44.4-236.2,2.3c-117.7,69.5-707.2,407.6-882.9,509.4C35.3,587.3,0.1,651.5,0.1,734.8c-0.1,343.4,0,686.7-0.1,1030
	c0,41.1,8.6,77.5,26,108.9c17.8,32.3,44.9,59.3,81.6,80.5c175.7,101.8,765.2,439.9,882.9,509.4c79.2,46.8,156.5,48.4,236.2,2.3
	c295.7-170.9,591.8-341.1,887.7-511.8c36.7-21.2,63.8-48.3,81.6-80.5c17.3-31.4,26-67.8,26-108.9
	C2222,1764.8,2222,1078.3,2221.9,734.9"/>
<path class="st1" d="M1224.7,35.9c-79.6-46-156.8-44.3-235.8,2.3c-117.5,69.3-706.1,406.5-881.4,508.1
	C35.3,588.1,0.1,652.1,0.1,735.3C0,1077.7,0.1,1420.2,0,1762.6c0,41,8.6,77.3,25.9,108.6c17.8,32.2,44.9,59.1,81.5,80.3
	c58.3,33.7,116.6,67.3,175,100.9L1906.3,428.6C1679.1,297.7,1451.8,167,1224.7,35.9"/>
<path class="st2" d="M1340.6,1093.4l345.8,2.4c0-144.1-145.8-496.9-563.9-496.9c-266.4,0-624.5,169.4-624.5,656.3
	c0,486.9,351.1,645.7,624.5,645.7c442.8,0,548.6-306.4,548.6-479.6l-329.9-18.9c0,0,8.8,200.3-220.5,200.3
	c-211.7,0-247-259.3-247-347.5c0-134.1,47.7-349.3,247-349.3C1320.1,905.9,1340.6,1093.4,1340.6,1093.4"/>
</svg>
