<svg xmlns="http://www.w3.org/2000/svg" xmlns:xlink="http://www.w3.org/1999/xlink" width="2072" height="2072">
  <defs>
    <linearGradient id="n">
      <stop offset="0" stop-color="#32691d"/>
      <stop offset=".02" stop-color="#01d200" stop-opacity="0"/>
      <stop offset="1" stop-color="#fff" stop-opacity="0"/>
    </linearGradient>
    <linearGradient id="m">
      <stop offset="0" stop-color="#ebebec"/>
      <stop offset=".005" stop-color="#d3d3d3" stop-opacity="0"/>
      <stop offset="1" stop-color="#fff" stop-opacity="0"/>
    </linearGradient>
    <linearGradient id="l">
      <stop offset="0" stop-color="#cbf595"/>
      <stop offset=".018" stop-color="#01da00" stop-opacity="0"/>
      <stop offset="1" stop-color="#fff" stop-opacity="0"/>
    </linearGradient>
    <linearGradient id="j">
      <stop offset="0" stop-color="#321e1d"/>
      <stop offset=".015" stop-color="#555548" stop-opacity="0"/>
      <stop offset="1" stop-color="#fff" stop-opacity="0"/>
    </linearGradient>
    <linearGradient id="i">
      <stop offset="0" stop-color="#321e1d"/>
      <stop offset=".02" stop-color="#5a5bd7" stop-opacity="0"/>
      <stop offset="1" stop-color="#fff" stop-opacity="0"/>
    </linearGradient>
    <linearGradient id="h">
      <stop offset="0" stop-color="#f6b1b2"/>
      <stop offset=".028" stop-color="#c51f1f" stop-opacity="0"/>
      <stop offset="1" stop-color="#fff" stop-opacity="0"/>
    </linearGradient>
    <linearGradient id="f">
      <stop offset="0" stop-color="#321e1d"/>
      <stop offset=".02" stop-color="#555548" stop-opacity="0"/>
      <stop offset="1" stop-color="#fff" stop-opacity="0"/>
    </linearGradient>
    <linearGradient id="e">
      <stop offset="0" stop-color="#cbcaf2"/>
      <stop offset=".026" stop-color="#5555d2" stop-opacity="0"/>
      <stop offset="1" stop-color="#fff" stop-opacity="0"/>
    </linearGradient>
    <linearGradient id="d">
      <stop offset="0" stop-color="#848484"/>
      <stop offset="1" stop-color="#d2d2d2"/>
    </linearGradient>
    <linearGradient id="c">
      <stop offset="0" stop-color="#01a300"/>
      <stop offset="1" stop-color="#01df00"/>
    </linearGradient>
    <linearGradient id="b">
      <stop offset="0" stop-color="#b40e0e"/>
      <stop offset="1" stop-color="#ff5959"/>
    </linearGradient>
    <linearGradient id="a">
      <stop offset="0" stop-color="#1011a1"/>
      <stop offset="1" stop-color="#6969e1"/>
    </linearGradient>
    <linearGradient xlink:href="#a" id="p" x1="-1527.351" y1="1387.521" x2="-1086.116" y2="454.14" gradientUnits="userSpaceOnUse" gradientTransform="translate(2104 48)"/>
    <linearGradient xlink:href="#b" id="s" x1="-933.381" y1="680.414" x2="-316.784" y2="1721.275" gradientUnits="userSpaceOnUse" gradientTransform="translate(2104 48)"/>
    <linearGradient xlink:href="#c" id="u" x1="-678.823" y1="1794.814" x2="-1549.978" y2="1721.275" gradientUnits="userSpaceOnUse" gradientTransform="translate(2104 48)"/>
    <linearGradient xlink:href="#d" id="w" x1="-984.293" y1="1472.373" x2="-995.606" y2="1093.364" gradientUnits="userSpaceOnUse" gradientTransform="translate(2104 48)"/>
    <linearGradient xlink:href="#e" id="q" x1="-1238.046" y1="919.714" x2="-555.824" y2="917.513" gradientUnits="userSpaceOnUse" gradientTransform="matrix(1.9189 .9835 -.45611 .88992 3476.042 1285.266)"/>
    <linearGradient y2="913.406" x2="-552.84" y1="919.714" x1="-1238.046" gradientTransform="matrix(-1.9407 .93973 -.43582 -.90004 -412.215 3168.65)" gradientUnits="userSpaceOnUse" id="v" xlink:href="#f"/>
    <linearGradient id="g">
      <stop offset="0" stop-color="#321e1d"/>
      <stop offset=".02" stop-color="#555548" stop-opacity="0"/>
      <stop offset="1" stop-color="#fff" stop-opacity="0"/>
    </linearGradient>
    <linearGradient y2="915.3" x2="-555.837" y1="919.714" x1="-1238.046" gradientTransform="matrix(.027 -2.15606 .90369 .01315 114.37 -755.43)" gradientUnits="userSpaceOnUse" id="z" xlink:href="#g"/>
    <linearGradient y2="917.618" x2="-554.897" y1="919.714" x1="-1238.046" gradientTransform="matrix(3.13625 .00262 .06431 .76015 4936.136 68.133)" gradientUnits="userSpaceOnUse" id="t" xlink:href="#h"/>
    <linearGradient y2="917.513" x2="-555.824" y1="918.444" x1="-1229.327" gradientTransform="matrix(-2.15102 -.07026 -.03821 -.4821 -1498.469 1058.01)" gradientUnits="userSpaceOnUse" id="r" xlink:href="#i"/>
    <linearGradient y2="917.513" x2="-555.824" y1="920.418" x1="-1237.111" gradientTransform="matrix(-1.37982 -1.65696 .76845 -.63991 -2195.637 413.894)" gradientUnits="userSpaceOnUse" id="B" xlink:href="#j"/>
    <linearGradient id="k">
      <stop offset="0" stop-color="#321e1d"/>
      <stop offset=".017" stop-color="#555548" stop-opacity="0"/>
      <stop offset="1" stop-color="#fff" stop-opacity="0"/>
    </linearGradient>
    <linearGradient y2="910.646" x2="-551.125" y1="915.736" x1="-1242.233" gradientTransform="matrix(.85312 -1.9803 .9184 .39565 2182.292 -885.935)" gradientUnits="userSpaceOnUse" id="A" xlink:href="#k"/>
    <linearGradient y2="915.48" x2="-555.867" y1="919.714" x1="-1238.046" gradientTransform="matrix(1.38299 1.65431 -.76722 .64139 2529.839 3432.872)" gradientUnits="userSpaceOnUse" id="x" xlink:href="#l"/>
    <linearGradient y2="917.187" x2="-866.868" y1="918.099" x1="-1242.558" gradientTransform="matrix(1.38299 1.65431 -.76722 .64139 2930.535 3096.938)" gradientUnits="userSpaceOnUse" id="C" xlink:href="#m"/>
    <linearGradient y2="917.513" x2="-555.824" y1="919.714" x1="-1238.046" gradientTransform="matrix(-.8318 1.98933 -.83312 -.35033 1447.575 4603.684)" gradientUnits="userSpaceOnUse" id="y" xlink:href="#n"/>
    <filter id="o">
      <feGaussianBlur stdDeviation="9.077"/>
    </filter>
  </defs>
  <path d="M1971.557 1939.914l-1797.086-.126c-11.03-1.222-8.54-6.713-5.996-12.222l900.88-1799.485c3.313-5.277 6.288-4.437 9.086-.411l900.856 1799.436c4.578 9.167 1.58 13.15-7.74 12.808z" fill="none" stroke="#3a393b" stroke-width="22.5" filter="url(#o)" opacity=".54"/>
  <path d="M1143.308 1084.322l-984.617 841.74 901.82-1801.96 82.797 960.22z" fill="url(#p)" stroke="#000"/>
  <path d="M1060.564 125.62c13.415 80.715 11.94 94.79-18.035 140.073L245.92 1844.832l-84.603 76.927 899.247-1796.14z" fill="url(#q)"/>
  <path d="M1147.188 1083.154l-50.167 40.053-52.789-888.726c-4.053-47.434-6.241-43.17-6.549-68.17l25.1-48.952 84.405 965.795z" fill="url(#r)"/>
  <path d="M1188.936 1609.994L1060.98 123.94l902.974 1802.286-775.017-316.232z" fill="url(#s)" stroke="#000"/>
  <path d="M1060.907 120.077c24.175 30.046 39.608 75.94 48.965 112.179l179.375 1415.104-98.428-38.439-129.912-1488.844z" fill="url(#t)"/>
  <path d="M743.41 1423.835l1221.47 502.173-1805.952-.198 584.481-501.975z" fill="url(#u)" stroke="#000"/>
  <path d="M1963.69 1926.528l-56.715-24.617L1110.99 298.859c-21.947-24.379-34.345-39.623-41.22-51.952-1.126-32.32-2.942-61.082-9.913-126.263l903.832 1805.884z" fill="url(#v)"/>
  <path d="M745.266 1425.047l397.423-339.038 55.33 523.572-452.753-184.534z" fill="url(#w)" stroke="#000" stroke-width="4"/>
  <path d="M742.728 1426.255c17.482 6.75 20.842 8.283 35.806 14.42-16.159 13.831-69.88 86.49-91.428 103.85l-428.407 362.7-98.82 18.388 582.85-499.358z" fill="url(#x)"/>
  <path d="M1962.868 1925.46l-68.065-1.05-1174.867-479.632 23.505-18.717 470.763 191.942 748.664 307.456z" fill="url(#y)"/>
  <path d="M159.983 1925.44l50.295-42.886 1643.009.153 110.327 42.727-1803.631.01z" fill="url(#z)"/>
  <path d="M1199.847 1610.987l-2.16-22.338 610.587 235.168c39.456 18.766 69.106 27.299 88.825 43.327 12.695 5.208 34.725 12.634 46.114 16.473 13.926 9.222 11.506 23.958 20.318 41.543l-763.684-314.173z" fill="url(#A)"/>
  <path d="M1958.587 1931.807l-1797.087-.126c-11.03-1.222-8.54-6.713-5.996-12.221l900.88-1799.486c3.314-5.277 6.288-4.437 9.086-.41L1966.326 1919c4.578 9.166 1.581 13.15-7.74 12.807z" fill="none" stroke="#000" stroke-width="12.2"/>
  <path d="M160.09 1924.15l25.525-54.532 52.068-38.569 899.327-780.875c4.8 18.518 1.88 6.934 6.131 33.99l-983.05 839.986z" fill="url(#B)"/>
  <path d="M1141.05 1090.571c-7.893 86.608-17.716 81.544-53.248 118.02l-263.407 244.7-74.944-29.237 391.598-333.483z" fill="url(#C)"/>
</svg>
